<svg xmlns="http://www.w3.org/2000/svg" width="24" height="24" viewBox="0 0 24 24"><defs><style>.a{fill:#fff;}.b{fill:#73d500;}.c{fill:#fe4a7a;}.d{fill:#0393ff;}</style></defs><g transform="translate(-24 -24)"><rect class="a" width="11" height="11" rx="5.5" transform="translate(24 24)"/><path class="b" d="M0,0H11a0,0,0,0,1,0,0V11a0,0,0,0,1,0,0h0A11,11,0,0,1,0,0V0A0,0,0,0,1,0,0Z" transform="translate(24 37)"/><path class="c" d="M0,0H5.5A5.5,5.5,0,0,1,11,5.5v0A5.5,5.5,0,0,1,5.5,11H0a0,0,0,0,1,0,0V0A0,0,0,0,1,0,0Z" transform="translate(37 24)"/><rect class="d" width="11" height="11" transform="translate(37 37)"/></g></svg>